<svg width="52" height="65" xmlns="http://www.w3.org/2000/svg">
 <!-- Created with Method Draw - http://github.com/duopixel/Method-Draw/ -->
 <g>
  <title>background</title>
 </g>
 <g>
  <title>Layer 1</title>
  <circle transform="matrix(0.5426506612403479,0,0,0.5426506612403479,0,0) " id="svg_11" fill="#E8EAEC" r="48" cy="60.000004" cx="48.000017" opacity="0.4"/>
  <g transform="matrix(0.5426506612403479,0,0,0.5426506612403479,0,0) " id="svg_13" mask="url(#svg_8)">
   <rect id="svg_2" fill="url(#svg_7)" height="120.361" width="78.8571" y="0" x="8.5723"/>
  </g>
  <circle transform="matrix(0.5426506612403479,0,0,0.5426506612403479,0,0) " id="svg_15" fill="#E8EAEC" r="40" cy="60.000004" cx="48.000017"/>
  <path id="svg_16" fill="#757575" d="m32.150437,28.08l-2.3684,0l-1.36721,-1.46429l-4.48278,0l0,1.46429l3.8253,0l1.36721,1.46429l3.02588,0l0,8.78579l-11.95406,0l0,-6.5893l-1.49424,0l0,6.5893c0,0.80535 0.6724,1.46429 1.49424,1.46429l11.95406,0c0.82211,0 1.49446,-0.65894 1.49446,-1.46429l0,-8.78579c0,-0.80535 -0.67235,-1.46429 -1.49446,-1.46429zm-9.71264,5.85721c0,2.02072 1.67354,3.66072 3.73561,3.66072c2.06207,0 3.73566,-1.64 3.73566,-3.66072c0,-2.02072 -1.67359,-3.66072 -3.73566,-3.66072c-2.06207,0 -3.73561,1.64 -3.73561,3.66072zm3.73561,-2.19643c1.23279,0 2.24142,0.98838 2.24142,2.19643c0,1.20805 -1.00863,2.19643 -2.24142,2.19643c-1.23274,0 -2.24136,-0.98838 -2.24136,-2.19643c0,-1.20805 1.00862,-2.19643 2.24136,-2.19643zm-5.97703,-3.66078l2.24142,0l0,-1.46429l-2.24142,0l0,-2.19643l-1.49424,0l0,2.19643l-2.24136,0l0,1.46429l2.24136,0l0,2.19649l1.49424,0l0,-2.19649z"/>
 </g>
</svg>